<svg width="17" height="16" viewBox="0 0 17 16" fill="none" xmlns="http://www.w3.org/2000/svg">
<g clip-path="url(#clip0_157_4805)">
<path fill-rule="evenodd" clip-rule="evenodd" d="M0.513729 3.76441C0.537875 3.55864 0.593257 3.36242 0.675005 3.18063C0.773107 2.96246 0.909179 2.76507 1.07481 2.59685C1.43757 2.22843 1.94211 2 2.5 2H14.5C15.0579 2 15.5624 2.22843 15.9252 2.59685C16.0908 2.76506 16.2269 2.96246 16.325 3.18063C16.4067 3.36242 16.4621 3.55864 16.4863 3.76441C16.492 3.81359 16.496 3.86331 16.4982 3.91351C16.4994 3.94219 16.5 3.97102 16.5 4V12C16.5 13.1046 15.6046 14 14.5 14H2.5C1.39543 14 0.5 13.1046 0.5 12V4C0.5 3.97102 0.500616 3.94219 0.501837 3.91351C0.503973 3.86331 0.507959 3.81359 0.513729 3.76441ZM15 5.64276V12C15 12.2761 14.7761 12.5 14.5 12.5H2.5C2.22386 12.5 2 12.2761 2 12V5.64276L7.17735 11.6187C7.87517 12.4242 9.12483 12.4242 9.82265 11.6187L15 5.64276ZM14.7909 3.59331L8.68895 10.6365C8.58926 10.7516 8.41074 10.7516 8.31105 10.6365L2.20907 3.59331C2.29103 3.53457 2.39148 3.5 2.5 3.5H14.5C14.6085 3.5 14.709 3.53457 14.7909 3.59331Z" fill="#822E27"/>
</g>
<defs>
<clipPath id="clip0_157_4805">
<rect width="16" height="16" fill="white" transform="translate(0.5)"/>
</clipPath>
</defs>
</svg>
