<svg width="192" height="80" viewBox="0 0 192 80" fill="none" xmlns="http://www.w3.org/2000/svg">
<path d="M0.83125 41.536H6.15925V24.16C6.15925 19.024 9.51925 17.344 12.1593 17.344C13.0713 17.344 15.3753 17.536 16.7193 19.36C18.1113 21.232 18.0633 22.72 18.0633 24.16V52H14.3672V44.992H9.85525V52H6.15925V44.992H2.99125L0.83125 41.536ZM9.85525 41.536H14.3672V24.16C14.3672 23.008 14.3672 21.04 12.1113 21.04C9.85525 21.04 9.85525 23.056 9.85525 24.16V41.536ZM19.4875 41.536H24.8155V18.208H28.5115V41.536C29.4235 40.864 31.0555 39.616 32.0635 37.552C33.5515 34.624 33.5515 32.464 33.5515 30.976V18.208H37.2955V30.976C37.2955 34.72 36.4795 38.656 33.5515 41.488C37.2955 42.544 37.2955 45.28 37.2955 46.768V52H33.5515V46.672C33.5515 45.712 33.5515 44.992 32.0155 44.992H28.5115V52H24.8155V44.992H21.6475L19.4875 41.536ZM38.0477 41.536H43.3758V18.208H47.0718V41.536H51.8238V18.208H55.5198V52H51.8238V44.992H47.0718V52H43.3758V44.992H40.2078L38.0477 41.536ZM71.2 52H65.824C61.6 47.344 59.152 41.344 59.152 35.056C59.152 28.816 61.744 22.912 65.824 18.208H71.2C68.992 20.128 62.848 25.504 62.848 35.056C62.848 44.848 68.704 49.84 71.2 52ZM73.477 46.96V23.248C73.477 19.312 76.597 17.344 79.525 17.344C83.797 17.344 85.621 20.608 85.621 23.248V46.96C85.621 51.952 81.301 52.864 79.621 52.864C76.645 52.864 73.477 51.088 73.477 46.96ZM77.173 24.16V45.952C77.173 47.152 77.173 49.072 79.621 49.072C81.925 49.072 81.925 47.008 81.925 45.952V24.16C81.925 23.104 81.925 21.04 79.573 21.04C77.173 21.04 77.173 23.152 77.173 24.16ZM94.24 52H90.544V16.432L98.608 30.448V18.208H102.352V52H98.608V37.168L94.24 29.92V52ZM110.299 52H106.603V48.304H110.299V52Z" fill="#822E27"/>
<path d="M46.3848 75V60.7812H50.8672C52.3581 60.7812 53.5039 61.1621 54.3047 61.9238C55.112 62.679 55.5156 63.6849 55.5156 64.9414C55.5156 66.1979 55.112 67.2168 54.3047 67.998C53.5039 68.7728 52.3581 69.1602 50.8672 69.1602H48.1523V75H46.3848ZM48.1523 67.7051H50.8672C51.9414 67.7051 52.6901 67.4382 53.1133 66.9043C53.5365 66.3704 53.748 65.7161 53.748 64.9414C53.748 64.1667 53.5365 63.5221 53.1133 63.0078C52.6901 62.487 51.9414 62.2266 50.8672 62.2266H48.1523V67.7051ZM54.2754 75L50.7988 68.4375L52.5664 68.1738L56.248 75H54.2754ZM58.2012 75V60.7812H66.873V62.2461H59.9688V66.9336H65.9746V68.3984H59.9688V73.5352H66.9707V75H58.2012ZM67.5957 75L72.8496 60.6934H74.5098L79.7637 75H77.9277L74.0605 64.1016C73.9824 63.8802 73.9141 63.6686 73.8555 63.4668C73.8034 63.265 73.7513 63.0566 73.6992 62.8418H73.6113C73.5592 63.0566 73.5039 63.265 73.4453 63.4668C73.3867 63.6686 73.3184 63.8802 73.2402 64.1016L69.3535 75H67.5957ZM69.832 71.2402L70.3691 69.7852H76.9609L77.4883 71.2402H69.832ZM81.3652 75V60.7812H83.1328V73.5352H89.7441V75H81.3652ZM89.1484 62.2461V60.7812H99.9199V62.2461H95.418V75H93.6504V62.2461H89.1484ZM105.262 75V69.6289L100.428 60.7812H102.41L105.613 66.8457C105.717 67.041 105.812 67.2201 105.896 67.3828C105.981 67.5456 106.059 67.7148 106.131 67.8906H106.189C106.261 67.7148 106.339 67.5456 106.424 67.3828C106.515 67.2201 106.609 67.041 106.707 66.8457L109.939 60.7812H111.854L107.029 69.6289V75H105.262Z" fill="#6CA2E3"/>
<path fill-rule="evenodd" clip-rule="evenodd" d="M140.844 12.5705L152 1.41421L163.156 12.5705H160.127L152.977 5.42086L152.27 4.71376L151.563 5.42086L144.413 12.5705H140.844ZM139.43 12.5705L151.293 0.707107L152 0L152.707 0.707107L164.57 12.5705H178.568H179.568V13.5705V27.5681L191.293 39.2929L192 40L191.293 40.7071L179.568 52.4319V68.139V69.139H178.568H162.861L152.707 79.2929L152 80L151.293 79.2929L141.139 69.139H124H123V68.139V50.9995L112.707 40.7071L112 40L112.707 39.2929L123 29.0005V13.5705V12.5705H124H139.43ZM124 28.0005V13.5705H138.43L136.287 15.7132H127.142H126.142V16.7132V25.8579L124 28.0005ZM123 30.4147L113.414 40L123 49.5853V46.5545L117.421 40.9764L116.714 40.2693L117.421 39.5622L123 33.9842V30.4147ZM124 51.9995V68.139H140.139L137.996 65.9963H127.142H126.142V64.9963V54.1421L124 51.9995ZM126.142 52.7279L124 50.5853V47.5545L126.142 49.697V52.7279ZM127.142 55.1421V64.9963H136.996L127.142 55.1421ZM138.411 64.9963L127.142 53.7279V50.697L141.441 64.9963H138.411ZM139.411 65.9963L141.553 68.139H144.584L142.441 65.9963H139.411ZM142.553 69.139L152 78.5858L161.447 69.139H158.956L152.977 75.1178L152.27 75.8249L151.563 75.1178L145.584 69.139H142.553ZM163.861 68.139H178.568V53.4319L176.425 55.5748V64.9963V65.9963H175.425H166.004L163.861 68.139ZM164.589 65.9963L162.447 68.139H159.956L162.098 65.9963H164.589ZM167.004 64.9963H175.425V56.5748L167.004 64.9963ZM175.425 55.1605L165.589 64.9963H163.098L175.425 52.6695V55.1605ZM176.425 54.1605L178.568 52.0177V49.5267L176.425 51.6695V54.1605ZM179.568 51.0177L190.586 40L179.568 28.9823V32.0119L187.118 39.5622L187.825 40.2693L187.118 40.9764L179.568 48.5267V51.0177ZM178.568 26.5681V13.5705H165.57L167.713 15.7132H175.425H176.425V16.7132V24.4252L178.568 26.5681ZM176.425 25.8395L178.568 27.9823V31.0119L176.425 28.8691V25.8395ZM175.425 23.4252V16.7132H168.713L175.425 23.4252ZM167.299 16.7132L175.425 24.8395V27.8691L164.269 16.7132H167.299ZM166.299 15.7132L164.156 13.5705H161.127L163.269 15.7132H166.299ZM124 29.4147L126.142 27.2721V30.8416L124 32.9842V29.4147ZM127.142 26.2721V29.8416L140.271 16.7132H136.701L127.142 26.2721ZM135.287 16.7132H127.142V24.8579L135.287 16.7132ZM137.701 15.7132H141.271L143.413 13.5705H139.844L137.701 15.7132ZM152.27 6.12797L145.827 12.5705H158.712L152.27 6.12797ZM118.129 40.2693L123 35.3984V45.1403L118.129 40.2693ZM126.142 32.2558L124 34.3984V46.1403L126.142 48.2828V32.2558ZM145.998 68.139L143.856 65.9963H160.684L158.542 68.139H145.998ZM142.856 64.9963H161.684L175.425 51.2553V29.2833L162.855 16.7132H141.685L127.142 31.2558V49.2828L142.856 64.9963ZM178.568 48.1125L176.425 50.2553V30.2833L178.568 32.4261V48.1125ZM159.712 13.5705L161.855 15.7132H142.685L144.827 13.5705H159.712ZM186.411 40.2693L179.568 47.1125V33.4261L186.411 40.2693ZM152.27 74.4107L146.998 69.139H157.542L152.27 74.4107Z" fill="#822E27"/>
</svg>
