<svg width="130" height="50" viewBox="0 0 130 50" fill="none" xmlns="http://www.w3.org/2000/svg">
<path d="M0.3875 19.024H3.9395V7.44C3.9395 4.016 6.1795 2.896 7.9395 2.896C8.5475 2.896 10.0835 3.024 10.9795 4.24C11.9075 5.488 11.8755 6.48 11.8755 7.44V26H9.4115V21.328H6.4035V26H3.9395V21.328H1.8275L0.3875 19.024ZM6.4035 19.024H9.4115V7.44C9.4115 6.672 9.4115 5.36 7.9075 5.36C6.4035 5.36 6.4035 6.704 6.4035 7.44V19.024ZM12.825 19.024H16.377V3.472H18.841V19.024C19.449 18.576 20.537 17.744 21.209 16.368C22.201 14.416 22.201 12.976 22.201 11.984V3.472H24.697V11.984C24.697 14.48 24.153 17.104 22.201 18.992C24.697 19.696 24.697 21.52 24.697 22.512V26H22.201V22.448C22.201 21.808 22.201 21.328 21.177 21.328H18.841V26H16.377V21.328H14.265L12.825 19.024ZM25.1985 19.024H28.7505V3.472H31.2145V19.024H34.3825V3.472H36.8465V26H34.3825V21.328H31.2145V26H28.7505V21.328H26.6385L25.1985 19.024ZM47.3 26H43.716C40.9 22.896 39.268 18.896 39.268 14.704C39.268 10.544 40.996 6.608 43.716 3.472H47.3C45.828 4.752 41.732 8.336 41.732 14.704C41.732 21.232 45.636 24.56 47.3 26ZM48.818 22.64V6.832C48.818 4.208 50.898 2.896 52.85 2.896C55.698 2.896 56.914 5.072 56.914 6.832V22.64C56.914 25.968 54.034 26.576 52.914 26.576C50.93 26.576 48.818 25.392 48.818 22.64ZM51.282 7.44V21.968C51.282 22.768 51.282 24.048 52.914 24.048C54.45 24.048 54.45 22.672 54.45 21.968V7.44C54.45 6.736 54.45 5.36 52.882 5.36C51.282 5.36 51.282 6.768 51.282 7.44ZM62.66 26H60.196V2.288L65.572 11.632V3.472H68.068V26H65.572V16.112L62.66 11.28V26ZM73.366 26H70.902V23.536H73.366V26Z" fill="#822E27"/>
<path d="M21 45V33.625H24.6641C25.8776 33.625 26.8099 33.9297 27.4609 34.5391C28.1172 35.1484 28.4453 35.9557 28.4453 36.9609C28.4453 37.9714 28.1172 38.7891 27.4609 39.4141C26.8099 40.0391 25.8776 40.3516 24.6641 40.3516H22.4766V45H21ZM22.4766 39.1484H24.6641C25.5286 39.1484 26.1302 38.9375 26.4688 38.5156C26.8073 38.0885 26.9766 37.5703 26.9766 36.9609C26.9766 36.3516 26.8073 35.8438 26.4688 35.4375C26.1302 35.026 25.5286 34.8203 24.6641 34.8203H22.4766V39.1484ZM27.4062 45L24.625 39.75L26.0859 39.5312L29.0469 45H27.4062ZM30.6719 45V33.625H37.75V34.8359H32.1484V38.5234H37.0312V39.7422H32.1484V43.7891H37.8281V45H30.6719ZM38.3594 45L42.6406 33.5469H43.9844L48.2656 45H46.7344L43.625 36.3672C43.5625 36.1901 43.5078 36.0234 43.4609 35.8672C43.4141 35.7057 43.3724 35.5365 43.3359 35.3594H43.2578C43.2214 35.5365 43.1797 35.7057 43.1328 35.8672C43.0859 36.0234 43.0312 36.1901 42.9688 36.3672L39.8281 45H38.3594ZM40.1953 42.0156L40.6406 40.8047H45.9609L46.4062 42.0156H40.1953ZM49.5781 45V33.625H51.0547V43.7891H56.4062V45H49.5781ZM55.8984 34.8359V33.625H64.6484V34.8359H61.0078V45H59.5391V34.8359H55.8984ZM68.9922 45V40.7344L65.0859 33.625H66.7422L69.3047 38.4531C69.388 38.6094 69.4635 38.7526 69.5312 38.8828C69.599 39.013 69.6615 39.1484 69.7188 39.2891H69.7656C69.8229 39.1484 69.8854 39.013 69.9531 38.8828C70.026 38.7526 70.1042 38.6094 70.1875 38.4531L72.7812 33.625H74.375L70.4688 40.7344V45H68.9922Z" fill="#6CA2E3"/>
<path fill-rule="evenodd" clip-rule="evenodd" d="M86.3746 19.5396L80.9142 25L86.3746 30.4604V29.0967L83.1534 25.8754L82.4463 25.1683L83.1534 24.4612L86.3746 21.2399V19.5396ZM86.3746 18.1254L80.2071 24.2929L79.5 25L80.2071 25.7071L86.3746 31.8747V42.2121V43.2121H87.3746H97.7121L103.793 49.2929L104.5 50L105.207 49.2929L111.288 43.2121H120.73H121.73V42.2121V32.77L128.793 25.7071L129.5 25L128.793 24.2929L121.73 17.23V8.85676V7.85676H120.73H112.357L105.207 0.707107L104.5 0L103.793 0.707107L96.6432 7.85676H87.3746H86.3746V8.85676V18.1254ZM87.3746 18.5396V20.2399L88.3389 19.2757V17.5753L87.3746 18.5396ZM88.3389 16.1611L87.3746 17.1254V8.85676H95.6432L94.6791 9.82088H89.3389H88.3389V10.8209V16.1611ZM89.3389 16.5753V18.2757L96.7937 10.8209H95.0933L89.3389 16.5753ZM93.6791 10.8209L89.3389 15.1611V10.8209H93.6791ZM96.0933 9.82088H97.7937L98.7578 8.85676H97.0575L96.0933 9.82088ZM98.0575 7.85676H99.7578L103.961 3.6532L104.668 2.9461L105.376 3.6532L109.579 7.85676H110.943L104.5 1.41421L98.0575 7.85676ZM111.943 8.85676H110.579L111.543 9.82088H112.907L111.943 8.85676ZM113.907 10.8209H112.543L118.766 17.0435V15.6801L113.907 10.8209ZM118.766 14.2659L115.321 10.8209H118.766V14.2659ZM119.766 15.2659V10.8209V9.82088H118.766H114.321L113.357 8.85676H120.73V16.23L119.766 15.2659ZM119.766 16.6801V18.0435L120.73 19.0076V17.6442L119.766 16.6801ZM121.73 18.6442V20.0076L126.184 24.4612L126.891 25.1683L126.184 25.8754L121.73 30.3291V31.3558L128.086 25L121.73 18.6442ZM120.73 32.3558V31.3291L119.766 32.2932V33.3199L120.73 32.3558ZM118.766 34.3199V33.2932L111.811 40.2479H112.838L118.766 34.3199ZM114.252 40.2479L118.766 35.7341V40.2479H114.252ZM113.252 41.2479H118.766H119.766V40.2479V34.7341L120.73 33.77V42.2121H112.288L113.252 41.2479ZM111.838 41.2479H110.811L109.847 42.2121H110.874L111.838 41.2479ZM109.874 43.2121H108.847L105.376 46.6834L104.668 47.3905L103.961 46.6834L100.49 43.2121H99.1263L104.5 48.5858L109.874 43.2121ZM98.1263 42.2121H99.4901L98.5258 41.2479H97.1621L98.1263 42.2121ZM96.1621 40.2479H97.5258L89.3389 32.061V33.4247L96.1621 40.2479ZM89.3389 34.8389L94.7478 40.2479H89.3389V34.8389ZM88.3389 33.8389V40.2479V41.2479H89.3389H95.7478L96.7121 42.2121H87.3746V32.8747L88.3389 33.8389ZM88.3389 32.4247V31.061L87.3746 30.0967V31.4604L88.3389 32.4247ZM87.3746 28.6825L88.3389 29.6467V20.6899L87.3746 21.6542V28.6825ZM86.3746 22.6542L83.8605 25.1683L86.3746 27.6825V22.6542ZM89.3389 19.6899V30.6467L98.94 40.2479H110.397L118.766 31.8789V18.4577L111.129 10.8209H98.2079L89.3389 19.6899ZM99.2079 9.82088H110.129L109.165 8.85676H100.172L99.2079 9.82088ZM101.172 7.85676H108.165L104.668 4.36031L101.172 7.85676ZM119.766 19.4577V30.8789L120.73 29.9148V20.4218L119.766 19.4577ZM121.73 21.4218V28.9148L125.477 25.1683L121.73 21.4218ZM109.397 41.2479H99.94L100.904 42.2121H108.433L109.397 41.2479ZM107.433 43.2121H101.904L104.668 45.9763L107.433 43.2121Z" fill="#822E27"/>
</svg>
