<svg width="16" height="16" viewBox="0 0 16 16" fill="none" xmlns="http://www.w3.org/2000/svg">
<path fill-rule="evenodd" clip-rule="evenodd" d="M4.63599 2.73231C4.47062 2.40122 4.11168 2.32341 3.87107 2.47492C3.53167 2.68863 3.18812 2.92767 2.91666 3.16291C2.61923 3.42067 2.50685 3.59119 2.48648 3.65236C2.28914 4.245 2.09785 6.50433 5.78575 10.1961C9.47922 13.8934 11.6384 13.7271 12.3227 13.4988C12.4187 13.4667 12.605 13.3392 12.8582 13.0487C13.0945 12.7777 13.3276 12.4371 13.5326 12.1014C13.6728 11.872 13.5996 11.5261 13.2729 11.3626L11.0928 10.2714C11.0335 10.2417 10.9631 10.2444 10.9063 10.2786L9.84381 10.9167L9.84094 10.9185C9.8248 10.9285 9.74966 10.9752 9.67453 11.009C9.58015 11.0514 9.42168 11.106 9.22369 11.0885C8.94367 11.0638 8.63631 10.9226 8.27134 10.6716C7.89189 10.4107 7.38328 9.9837 6.69058 9.29028C5.9979 8.59689 5.57135 8.08776 5.31071 7.70792C5.06002 7.34258 4.91892 7.0349 4.89419 6.7546C4.8767 6.55638 4.93132 6.39773 4.9737 6.30325C5.00744 6.22804 5.05406 6.15282 5.06408 6.13665L5.06585 6.13377L5.70331 5.07024C5.73743 5.01331 5.74013 4.94288 5.71047 4.8835L4.63599 2.73231ZM3.12809 1.29252C4.13803 0.656583 5.38876 1.11592 5.88409 2.10762L6.95857 4.2588C7.20159 4.74535 7.17945 5.32246 6.89987 5.78891L6.33946 6.7239C6.36654 6.77236 6.40543 6.83616 6.46092 6.91703C6.65492 7.19976 7.01685 7.64143 7.67728 8.30255C8.33774 8.96369 8.77896 9.326 9.0614 9.5202C9.14218 9.57574 9.20591 9.61467 9.25431 9.64177L10.1883 9.08079C10.6543 8.80091 11.2308 8.77875 11.7168 9.02202L13.897 10.1132C14.8671 10.5988 15.3393 11.8215 14.7231 12.8302C14.4975 13.1996 14.218 13.6134 13.9096 13.9672C13.6181 14.3015 13.2275 14.6692 12.7639 14.8239C11.3619 15.2918 8.67172 15.0605 4.79904 11.1838C0.92078 7.3015 0.729501 4.51149 1.16267 3.21063C1.31083 2.76571 1.68226 2.38506 2.00335 2.1068C2.35043 1.80603 2.76011 1.52423 3.12809 1.29252Z" fill="#822E27"/>
</svg>
