<svg width="20" height="20" viewBox="0 0 20 20" fill="none" xmlns="http://www.w3.org/2000/svg">
<path d="M9.56094 0.4375C7.89347 0.437772 6.25506 0.874065 4.80828 1.70309C3.3615 2.53211 2.15665 3.72504 1.31328 5.1635C0.469909 6.60196 0.0173439 8.23596 0.000488669 9.90334C-0.0163665 11.5707 0.403075 13.2135 1.21719 14.6687L0.392192 17.5469C0.324823 17.7721 0.319652 18.0114 0.377227 18.2394C0.434802 18.4673 0.552977 18.6755 0.719228 18.8417C0.885479 19.008 1.09361 19.1261 1.32157 19.1837C1.54952 19.2413 1.78881 19.2361 2.01407 19.1688L4.89219 18.3438C6.16747 19.0578 7.58946 19.4699 9.04889 19.5486C10.5083 19.6273 11.9664 19.3704 13.311 18.7977C14.6557 18.2249 15.8512 17.3516 16.8056 16.2447C17.7601 15.1378 18.4481 13.8269 18.8169 12.4126C19.1856 10.9983 19.2253 9.51834 18.9328 8.08635C18.6403 6.65435 18.0235 5.30846 17.1296 4.15207C16.2358 2.99567 15.0888 2.05955 13.7768 1.41561C12.4647 0.771682 11.0225 0.437075 9.56094 0.4375ZM9.56094 18.4375C8.04655 18.4371 6.56019 18.029 5.25782 17.2562C5.16829 17.2085 5.06866 17.1828 4.96719 17.1812C4.91646 17.1782 4.86561 17.1846 4.81719 17.2L1.70469 18.0906C1.67211 18.1007 1.63742 18.1016 1.60434 18.0934C1.57125 18.0852 1.54103 18.0681 1.51693 18.044C1.49283 18.0199 1.47575 17.9897 1.46754 17.9566C1.45932 17.9235 1.46029 17.8888 1.47032 17.8563L2.36094 14.7438C2.38197 14.6703 2.38782 14.5934 2.37815 14.5176C2.36848 14.4419 2.34349 14.3689 2.30469 14.3031C1.35526 12.7018 0.962076 10.8314 1.18638 8.98336C1.41069 7.1353 2.2399 5.4133 3.54484 4.08559C4.84978 2.75789 6.55719 1.89903 8.4011 1.6428C10.245 1.38657 12.1219 1.74736 13.7394 2.66896C15.3569 3.59056 16.6242 5.02123 17.3439 6.73812C18.0636 8.45501 18.1953 10.3617 17.7184 12.1612C17.2416 13.9608 16.183 15.5521 14.7075 16.6873C13.232 17.8225 11.4226 18.4378 9.56094 18.4375ZM14.3891 11.575L12.4672 10.4781C12.2649 10.364 12.036 10.3056 11.8037 10.3089C11.5715 10.3122 11.3443 10.3771 11.1453 10.4969L9.94532 11.2188C9.2633 10.8558 8.70511 10.2976 8.34219 9.61563L9.06407 8.41563C9.18387 8.21665 9.24873 7.98945 9.25202 7.75722C9.25532 7.52499 9.19693 7.29604 9.08282 7.09375L7.98594 5.17188C7.87944 4.9874 7.72645 4.83406 7.54222 4.72715C7.35799 4.62023 7.14895 4.56346 6.93594 4.5625C6.09219 4.5625 5.28285 4.89703 4.68535 5.49278C4.08784 6.08853 3.75092 6.89687 3.74844 7.74063C3.74721 8.8002 3.95484 9.84962 4.35947 10.8289C4.7641 11.8082 5.35778 12.6981 6.10658 13.4477C6.85537 14.1974 7.74459 14.7921 8.72339 15.1979C9.70219 15.6036 10.7514 15.8125 11.8109 15.8125H11.8203C12.6641 15.81 13.4724 15.4731 14.0682 14.8756C14.6639 14.2781 14.9984 13.4688 14.9984 12.625C14.9975 12.412 14.9407 12.203 14.8338 12.0187C14.7269 11.8345 14.5735 11.6815 14.3891 11.575ZM11.8203 14.6875H11.8109C9.97014 14.685 8.20558 13.952 6.90482 12.6495C5.60405 11.347 4.87344 9.58143 4.87344 7.74063C4.87592 7.19524 5.09431 6.67304 5.48084 6.28827C5.86736 5.90351 6.39055 5.68749 6.93594 5.6875C6.96484 5.68987 6.99171 5.7033 7.01094 5.725L8.10782 7.64688C8.12287 7.6762 8.12993 7.70897 8.12829 7.74188C8.12664 7.7748 8.11635 7.8067 8.09844 7.83438L7.22657 9.30625C7.1772 9.382 7.14787 9.46905 7.14131 9.55923C7.13475 9.64941 7.15118 9.73978 7.18907 9.82188C7.70159 10.9531 8.60788 11.8594 9.73907 12.3719C9.82117 12.4098 9.91154 12.4262 10.0017 12.4196C10.0919 12.4131 10.1789 12.3837 10.2547 12.3344L11.7266 11.4625C11.7542 11.4446 11.7861 11.4343 11.8191 11.4327C11.852 11.431 11.8847 11.4381 11.9141 11.4531L13.8359 12.55C13.8576 12.5692 13.8711 12.5961 13.8734 12.625C13.8734 13.1704 13.6574 13.6936 13.2727 14.0801C12.8879 14.4666 12.3657 14.685 11.8203 14.6875Z" fill="#822E27"/>
</svg>
